<svg width="148" height="25" viewBox="0 0 148 25" fill="none" xmlns="http://www.w3.org/2000/svg">
<path d="M16.9248 21.3557L12.2938 23.9877C11.583 23.6101 11.061 23.0992 10.7279 22.4551C10.3947 21.7888 10.2281 20.9448 10.2281 19.923L7.36287 24.0876C5.27501 24.0876 3.73133 23.5879 2.73182 22.5884C1.73231 21.5667 1.23256 20.0008 1.23256 17.8907V9.66143L-0.000166045 9.56148V8.59529H5.93024V16.558C5.93024 17.5575 6.18567 18.3349 6.69653 18.8902C7.2296 19.4233 7.92925 19.7009 8.79549 19.7231L10.2281 18.3905V9.66143L9.02871 9.56148V8.59529H14.9258V17.9907C14.9258 18.8125 14.9702 19.4233 15.0591 19.8231C15.1701 20.2229 15.3367 20.5672 15.5588 20.8559L16.5583 20.3562L16.9248 21.3557ZM17.1479 22.6217L18.3806 22.5218L18.214 2.56493L16.948 2.83147L16.6148 1.86528L22.7784 -0.000468145L23.2449 0.799137L23.0783 22.5218L24.311 22.6217V23.5879H17.1479V22.6217ZM35.9076 20.9559L31.843 23.8877C30.1993 23.8877 28.9999 23.4879 28.2447 22.6883C27.5118 21.8665 27.1453 20.5561 27.1453 18.7569V9.89465H24.9131V8.82851C25.8459 8.31765 26.8565 7.59578 27.9449 6.66291C29.0555 5.70783 30.0661 4.70832 30.9767 3.66439L32.0762 3.99756L31.9096 8.59529H35.8077V9.9946L31.843 9.92796V17.5909C31.843 18.657 32.0429 19.4344 32.4427 19.923C32.8647 20.4117 33.42 20.656 34.1085 20.656L35.3412 19.9563L35.9076 20.9559ZM38.5027 1.56543L42.7673 0.599234V4.39736L38.5027 5.03038V1.56543ZM43.1004 22.5218L44.3332 22.6217V23.5879H37.17V22.6217L38.4028 22.5218L38.3028 10.6609L37.0368 10.9275L36.7036 9.96128L42.734 8.09554L43.2004 8.89514L43.1004 22.5218ZM70.603 22.6217V23.5879H63.4732V22.6217L64.7059 22.5218V15.4919C64.7059 14.5146 64.4505 13.7594 63.9396 13.2263C63.451 12.6711 62.7624 12.3823 61.874 12.3601L60.6413 13.5928V14.1592V22.5218L61.8407 22.6217V23.5879H54.7109V22.6217L55.9436 22.5218V15.4919C55.9436 14.5146 55.6881 13.7594 55.1773 13.2263C54.6886 12.6933 54.0001 12.4156 53.1116 12.3934L52.0122 13.4929L51.8789 22.5218L53.1116 22.6217V23.5879H45.9485V22.6217L47.1812 22.5218L47.0813 10.5943L45.8152 10.8942L45.4821 9.89465L50.7461 8.26212L51.9122 11.9936L54.6775 8.0289C56.3878 8.0289 57.7094 8.37318 58.6422 9.06173C59.5973 9.75027 60.2081 10.8164 60.4747 12.2601L63.4399 7.99558C65.4833 7.99558 66.9826 8.49534 67.9377 9.49485C68.915 10.4944 69.4036 12.0491 69.4036 14.1592V22.5218L70.603 22.6217ZM79.2428 8.09554C81.4639 8.09554 83.2519 8.75077 84.6068 10.0612C85.9617 11.3717 86.6391 13.2374 86.6391 15.6585C86.6391 16.7024 86.4503 17.7796 86.0727 18.8902C85.7173 20.0008 85.1843 20.9781 84.4735 21.8221C83.7628 22.5106 82.9298 23.0659 81.9747 23.4879C81.0419 23.8877 80.0535 24.0876 79.0095 24.0876C76.7884 24.0876 75.0004 23.4324 73.6455 22.1219C72.2906 20.8115 71.6132 18.9457 71.6132 16.5247C71.6132 15.503 71.802 14.4369 72.1796 13.3263C72.5572 12.2157 73.1013 11.2384 73.8121 10.3944C74.5229 9.70585 75.3447 9.15057 76.2776 8.72856C77.2326 8.30654 78.221 8.09554 79.2428 8.09554ZM76.4108 14.9255C76.4108 17.0356 76.8217 18.6126 77.6435 19.6565C78.4876 20.7004 79.7203 21.3223 81.3417 21.5222C81.4972 20.8559 81.6194 20.1118 81.7082 19.29C81.7971 18.4682 81.8415 17.7908 81.8415 17.2577C81.8415 15.1254 81.4195 13.5484 80.5754 12.5267C79.7536 11.4828 78.5431 10.8608 76.9439 10.6609C76.7884 11.3495 76.6551 12.1047 76.5441 12.9265C76.4552 13.7483 76.4108 14.4146 76.4108 14.9255ZM108.837 8.59529V9.66143L107.871 9.69475L101.974 23.388L98.609 23.5879L93.3449 9.69475L92.3787 9.66143V8.59529H100.275V9.66143L98.8755 9.69475L101.774 19.9563L104.506 9.69475L103.107 9.66143V8.59529H108.837ZM116.921 8.09554C118.876 8.09554 120.408 8.8063 121.519 10.2278C122.652 11.6271 123.207 13.5262 123.185 15.925L113.989 16.2249C114.145 17.5353 114.6 18.5348 115.355 19.2234C116.11 19.9119 117.11 20.2562 118.354 20.2562C120.086 20.2562 121.497 19.7787 122.585 18.8236L123.185 19.3566C122.407 20.8448 121.352 22.0109 120.02 22.8549C118.709 23.6767 117.31 24.0876 115.822 24.0876C113.8 24.0876 112.19 23.4213 110.991 22.0886C109.813 20.7337 109.225 18.9124 109.225 16.6247C109.225 15.2698 109.491 13.926 110.024 12.5933C110.58 11.2606 111.279 10.1501 112.123 9.26163C112.701 8.92846 113.445 8.65082 114.356 8.4287C115.266 8.20659 116.121 8.09554 116.921 8.09554ZM118.254 14.8255C118.232 13.2708 118.009 12.038 117.587 11.1274C117.165 10.2167 116.566 9.67254 115.788 9.49485C115.233 10.0723 114.778 10.883 114.422 11.927C114.089 12.9487 113.923 14.0037 113.923 15.0921V15.192L118.254 14.8255ZM124.256 22.6217L125.489 22.5218L125.323 2.56493L124.057 2.83147L123.723 1.86528L129.887 -0.000468145L130.353 0.799137L130.187 22.5218L131.42 22.6217V23.5879H124.256V22.6217ZM140.118 8.09554C142.339 8.09554 144.127 8.75077 145.482 10.0612C146.837 11.3717 147.514 13.2374 147.514 15.6585C147.514 16.7024 147.325 17.7796 146.948 18.8902C146.592 20.0008 146.059 20.9781 145.348 21.8221C144.638 22.5106 143.805 23.0659 142.85 23.4879C141.917 23.8877 140.928 24.0876 139.884 24.0876C137.663 24.0876 135.875 23.4324 134.52 22.1219C133.166 20.8115 132.488 18.9457 132.488 16.5247C132.488 15.503 132.677 14.4369 133.054 13.3263C133.432 12.2157 133.976 11.2384 134.687 10.3944C135.398 9.70585 136.22 9.15057 137.152 8.72856C138.108 8.30654 139.096 8.09554 140.118 8.09554ZM137.286 14.9255C137.286 17.0356 137.697 18.6126 138.518 19.6565C139.362 20.7004 140.595 21.3223 142.217 21.5222C142.372 20.8559 142.494 20.1118 142.583 19.29C142.672 18.4682 142.716 17.7908 142.716 17.2577C142.716 15.1254 142.294 13.5484 141.45 12.5267C140.629 11.4828 139.418 10.8608 137.819 10.6609C137.663 11.3495 137.53 12.1047 137.419 12.9265C137.33 13.7483 137.286 14.4146 137.286 14.9255Z" fill="black"/>
</svg>
